<svg xmlns="http://www.w3.org/2000/svg" width="1920" height="1080" viewBox="0 0 1920 1080">
  <!-- Network connection lines -->
  <g stroke="#0066cc" stroke-width="1" opacity="0.15" fill="none">
    <!-- Top left cluster -->
    <line x1="200" y1="150" x2="400" y2="200" />
    <line x1="400" y1="200" x2="350" y2="350" />
    <line x1="200" y1="150" x2="350" y2="350" />
    <line x1="400" y1="200" x2="600" y2="150" />
    
    <!-- Top right cluster -->
    <line x1="1200" y1="180" x2="1400" y2="150" />
    <line x1="1400" y1="150" x2="1500" y2="300" />
    <line x1="1200" y1="180" x2="1300" y2="350" />
    <line x1="1300" y1="350" x2="1500" y2="300" />
    
    <!-- Middle cluster -->
    <line x1="800" y1="400" x2="1000" y2="450" />
    <line x1="1000" y1="450" x2="900" y2="600" />
    <line x1="800" y1="400" x2="900" y2="600" />
    <line x1="600" y1="500" x2="800" y2="400" />
    <line x1="600" y1="500" x2="900" y2="600" />
    
    <!-- Bottom left cluster -->
    <line x1="250" y1="750" x2="400" y2="850" />
    <line x1="400" y1="850" x2="550" y2="800" />
    <line x1="250" y1="750" x2="350" y2="900" />
    <line x1="350" y1="900" x2="550" y2="800" />
    
    <!-- Bottom right cluster -->
    <line x1="1300" y1="700" x2="1500" y2="750" />
    <line x1="1500" y1="750" x2="1450" y2="900" />
    <line x1="1300" y1="700" x2="1450" y2="900" />
    <line x1="1600" y1="800" x2="1500" y2="750" />
    
    <!-- Cross connections -->
    <line x1="350" y1="350" x2="600" y2="500" />
    <line x1="600" y1="150" x2="800" y2="400" />
    <line x1="1000" y1="450" x2="1300" y2="350" />
    <line x1="900" y1="600" x2="1300" y2="700" />
    <line x1="550" y1="800" x2="900" y2="600" />
  </g>
  
  <!-- Network nodes (circles) -->
  <g>
    <!-- Top left cluster -->
    <circle cx="200" cy="150" r="5" fill="#0066cc" opacity="0.3" />
    <circle cx="200" cy="150" r="3" fill="#0066cc" opacity="0.6" />
    
    <circle cx="400" cy="200" r="5" fill="#0066cc" opacity="0.3" />
    <circle cx="400" cy="200" r="3" fill="#0066cc" opacity="0.6" />
    
    <circle cx="350" cy="350" r="5" fill="#0066cc" opacity="0.3" />
    <circle cx="350" cy="350" r="3" fill="#0066cc" opacity="0.6" />
    
    <circle cx="600" cy="150" r="5" fill="#0066cc" opacity="0.3" />
    <circle cx="600" cy="150" r="3" fill="#0066cc" opacity="0.6" />
    
    <!-- Top right cluster -->
    <circle cx="1200" cy="180" r="5" fill="#0066cc" opacity="0.3" />
    <circle cx="1200" cy="180" r="3" fill="#0066cc" opacity="0.6" />
    
    <circle cx="1400" cy="150" r="5" fill="#0066cc" opacity="0.3" />
    <circle cx="1400" cy="150" r="3" fill="#0066cc" opacity="0.6" />
    
    <circle cx="1300" cy="350" r="5" fill="#0066cc" opacity="0.3" />
    <circle cx="1300" cy="350" r="3" fill="#0066cc" opacity="0.6" />
    
    <circle cx="1500" cy="300" r="5" fill="#0066cc" opacity="0.3" />
    <circle cx="1500" cy="300" r="3" fill="#0066cc" opacity="0.6" />
    
    <!-- Middle cluster -->
    <circle cx="600" cy="500" r="5" fill="#0066cc" opacity="0.3" />
    <circle cx="600" cy="500" r="3" fill="#0066cc" opacity="0.6" />
    
    <circle cx="800" cy="400" r="5" fill="#0066cc" opacity="0.3" />
    <circle cx="800" cy="400" r="3" fill="#0066cc" opacity="0.6" />
    
    <circle cx="1000" cy="450" r="5" fill="#0066cc" opacity="0.3" />
    <circle cx="1000" cy="450" r="3" fill="#0066cc" opacity="0.6" />
    
    <circle cx="900" cy="600" r="5" fill="#0066cc" opacity="0.3" />
    <circle cx="900" cy="600" r="3" fill="#0066cc" opacity="0.6" />
    
    <!-- Bottom left cluster -->
    <circle cx="250" cy="750" r="5" fill="#0066cc" opacity="0.3" />
    <circle cx="250" cy="750" r="3" fill="#0066cc" opacity="0.6" />
    
    <circle cx="400" cy="850" r="5" fill="#0066cc" opacity="0.3" />
    <circle cx="400" cy="850" r="3" fill="#0066cc" opacity="0.6" />
    
    <circle cx="550" cy="800" r="5" fill="#0066cc" opacity="0.3" />
    <circle cx="550" cy="800" r="3" fill="#0066cc" opacity="0.6" />
    
    <circle cx="350" cy="900" r="5" fill="#0066cc" opacity="0.3" />
    <circle cx="350" cy="900" r="3" fill="#0066cc" opacity="0.6" />
    
    <!-- Bottom right cluster -->
    <circle cx="1300" cy="700" r="5" fill="#0066cc" opacity="0.3" />
    <circle cx="1300" cy="700" r="3" fill="#0066cc" opacity="0.6" />
    
    <circle cx="1500" cy="750" r="5" fill="#0066cc" opacity="0.3" />
    <circle cx="1500" cy="750" r="3" fill="#0066cc" opacity="0.6" />
    
    <circle cx="1450" cy="900" r="5" fill="#0066cc" opacity="0.3" />
    <circle cx="1450" cy="900" r="3" fill="#0066cc" opacity="0.6" />
    
    <circle cx="1600" cy="800" r="5" fill="#0066cc" opacity="0.3" />
    <circle cx="1600" cy="800" r="3" fill="#0066cc" opacity="0.6" />
  </g>
</svg>